<?xml version="1.0" encoding="utf-8"?>
<!-- Generator: Adobe Illustrator 16.0.4, SVG Export Plug-In . SVG Version: 6.00 Build 0)  -->
<!DOCTYPE svg PUBLIC "-//W3C//DTD SVG 1.1//EN" "http://www.w3.org/Graphics/SVG/1.1/DTD/svg11.dtd">
<svg version="1.1" xmlns="http://www.w3.org/2000/svg" xmlns:xlink="http://www.w3.org/1999/xlink" x="0px" y="0px" width="32px"
	 height="32px" viewBox="-1 -1 32 32" enable-background="new -1 -1 32 32" xml:space="preserve">
<g id="Layer_2" display="none">
	
		<rect x="-127.272" y="-97.64" display="inline" fill="#4060FF" stroke="#000000" stroke-miterlimit="10" width="356" height="282"/>
</g>
<g id="Layer_1">
	<path fill="none" stroke="#231F20" stroke-miterlimit="10" d="M11.242,12.43"/>
	<path fill="none" stroke="#231F20" stroke-miterlimit="10" d="M8.744,9.93"/>
	<g>
		<path fill="#FFFFFF" d="M17.234,2.007v13.066L15,16.072l-2.235-0.999V2.007c0,0-4.02-0.759-6.658,13.066
			c-0.227,1.182,3.579,6.627,5.307,9.468C12.307,26.01,14.258,26,14.999,26c0.775,0,2.603,0.01,3.585-1.458
			c1.853-2.761,5.533-8.286,5.308-9.468C21.254,1.248,17.234,2.007,17.234,2.007z M8.231,11.888l0.009-0.113
			c0.249-5.194,2.807-7.988,2.917-8.105l0.445-0.461v11.853l-0.423-0.398l-0.007-8.475l-0.324,0.348
			c-0.078,0.083-1.885,2.085-2.161,5.782L8.231,11.888z M12.588,19.338c-0.279,0-2.241-1.831-2.241-1.831l2.241,0.76V19.338z
			 M17.433,19.338v-1.071l2.243-0.76C19.676,17.507,17.714,19.338,17.433,19.338z M16.987,17.997v3.589l-0.485,2.726l-0.229,0.091
			l0.003,0.003h-0.013l-1.267,0.497l-1.253-0.497h-0.008l0.002-0.003l-0.229-0.091l-0.536-2.688l-0.002-3.627L9.937,16.97
			l0.159-0.476l3.374,1.145v3.947l0.492,2.366l0.207,0.083l0.84-0.427l0.834,0.424l0.206-0.08l0.442-2.4l-0.002-3.913l3.377-1.145
			l0.158,0.476L16.987,17.997z M19.119,6.536l-0.323-0.348l-0.009,8.477l-0.42,0.396L18.365,3.208l0.443,0.461
			c0.109,0.118,2.669,2.911,2.922,8.105l0.006,0.113l-0.457,0.431C21.009,8.622,19.198,6.62,19.119,6.536z"/>
	</g>
	<path fill="#F97200" stroke="#F97200" stroke-miterlimit="10" d="M14.999,25.34"/>
</g>
</svg>
