<?xml version="1.0" encoding="utf-8"?>
<!-- Generator: Adobe Illustrator 16.0.4, SVG Export Plug-In . SVG Version: 6.00 Build 0)  -->
<!DOCTYPE svg PUBLIC "-//W3C//DTD SVG 1.1//EN" "http://www.w3.org/Graphics/SVG/1.1/DTD/svg11.dtd">
<svg version="1.1" id="Layer_1" xmlns="http://www.w3.org/2000/svg" xmlns:xlink="http://www.w3.org/1999/xlink" x="0px" y="0px"
	 width="30px" height="30px" viewBox="0 0 30 30" enable-background="new 0 0 30 30" xml:space="preserve">
<g>
	<path fill="#0C0C0C" d="M15.023,29.051c0.909,0,3.047,0.012,4.198-1.708c2.17-3.231,6.479-9.702,6.214-11.086
		C22.348,0.069,17.641,0.958,17.641,0.958v15.299l-2.617,1.17l-2.617-1.17V0.958c0,0-4.706-0.889-7.795,15.299
		c-0.266,1.384,4.19,7.761,6.213,11.086C11.87,29.062,14.155,29.051,15.023,29.051z"/>
	<g>
		<path fill="#FFFFFF" d="M11.045,16.242l-3.947-3.715l0.011-0.133c0.291-6.081,3.286-9.353,3.415-9.49l0.521-0.54V16.242z"/>
	</g>
	<path fill="none" stroke="#231F20" stroke-miterlimit="10" d="M10.624,13.162"/>
	<path fill="none" stroke="#231F20" stroke-miterlimit="10" d="M7.698,10.235"/>
	<g>
		<path fill="#FFFFFF" d="M18.965,2.364l0.52,0.54c0.127,0.138,3.125,3.409,3.42,9.49l0.006,0.133l-3.944,3.715L18.965,2.364
			L18.965,2.364z"/>
	</g>
	<g>
		<polygon fill="#FFFFFF" points="15.021,27.766 13.277,27.074 12.65,23.926 12.648,19.68 9.095,18.477 9.281,17.921 13.231,19.26 
			13.231,23.882 13.807,26.652 15.021,27.135 16.252,26.652 16.77,23.842 16.768,19.26 20.721,17.921 20.906,18.477 17.352,19.68 
			17.352,23.882 16.782,27.074 		"/>
	</g>
	<g>
		<polygon fill="#FFFFFF" points="15.032,25.904 13.543,27.184 16.52,27.184 		"/>
	</g>
	<path fill="#0C0C0C" d="M10.551,16.262l-2.96-2.786l0.004-0.1c0.226-4.561,2.473-7.015,2.566-7.116l0.38-0.407L10.551,16.262z"/>
	<path fill="#0C0C0C" d="M19.469,5.853l0.379,0.407c0.096,0.102,2.346,2.556,2.564,7.116l0.006,0.1l-2.96,2.786L19.469,5.853z"/>
	<g>
		<path fill="#FF5A00" d="M9.576,19.105c0,0,2.297,2.145,2.624,2.145v-1.254L9.576,19.105z"/>
		<path fill="#FFFFFF" d="M9.576,19.105c0,0,2.297,2.145,2.624,2.145v-1.254L9.576,19.105L9.576,19.105z"/>
	</g>
	<g>
		<path fill="#FF5A00" d="M20.499,19.105c0,0-2.297,2.145-2.626,2.145v-1.254L20.499,19.105z"/>
		<path fill="#FFFFFF" d="M20.499,19.105l-2.626,0.891v1.254C18.202,21.25,20.499,19.105,20.499,19.105L20.499,19.105z"/>
	</g>
	<path fill="#F97200" stroke="#F97200" stroke-miterlimit="10" d="M15.023,28.277"/>
</g>
</svg>
