<?xml version="1.0" encoding="utf-8"?>
<!-- Generator: Adobe Illustrator 16.0.4, SVG Export Plug-In . SVG Version: 6.00 Build 0)  -->
<!DOCTYPE svg PUBLIC "-//W3C//DTD SVG 1.1//EN" "http://www.w3.org/Graphics/SVG/1.1/DTD/svg11.dtd">
<svg version="1.1" id="Layer_1" xmlns="http://www.w3.org/2000/svg" xmlns:xlink="http://www.w3.org/1999/xlink" x="0px" y="0px"
	 width="30px" height="30px" viewBox="0 0 30 30" enable-background="new 0 0 30 30" xml:space="preserve">
<path fill="none" stroke="#231F20" stroke-miterlimit="10" d="M10.624,13.162"/>
<path fill="none" stroke="#231F20" stroke-miterlimit="10" d="M7.698,10.235"/>
<g>
	<path fill="#FFFFFF" d="M17.641,0.958v15.299l-2.617,1.17l-2.617-1.17V0.958c0,0-4.706-0.889-7.795,15.299
		c-0.266,1.384,4.19,7.761,6.213,11.086c1.045,1.72,3.33,1.708,4.198,1.708c0.909,0,3.047,0.012,4.198-1.708
		c2.17-3.231,6.479-9.702,6.215-11.086C22.348,0.069,17.641,0.958,17.641,0.958z M7.098,12.527l0.011-0.133
		c0.291-6.081,3.286-9.353,3.415-9.49l0.521-0.54v13.878l-0.495-0.466l-0.009-9.923l-0.38,0.407
		c-0.091,0.098-2.207,2.441-2.529,6.77L7.098,12.527z M12.2,21.25c-0.327,0-2.624-2.145-2.624-2.145l2.624,0.891V21.25z
		 M17.873,21.25v-1.254l2.626-0.891C20.499,19.105,18.202,21.25,17.873,21.25z M17.352,19.68v4.202l-0.569,3.192l-0.268,0.105
		l0.005,0.004h-0.016l-1.483,0.582l-1.468-0.582h-0.01l0.003-0.003l-0.269-0.106l-0.627-3.148l-0.002-4.246l-3.553-1.203
		l0.186-0.556l3.95,1.339v4.622l0.576,2.771l0.242,0.097l0.983-0.499l0.979,0.496l0.24-0.094l0.518-2.811l-0.002-4.582l3.953-1.339
		l0.186,0.556L17.352,19.68z M19.848,6.26l-0.379-0.407l-0.01,9.926l-0.492,0.463L18.965,2.364l0.52,0.54
		c0.127,0.138,3.125,3.409,3.42,9.49l0.007,0.133l-0.535,0.504C22.061,8.703,19.94,6.359,19.848,6.26z"/>
</g>
<path fill="#F97200" stroke="#F97200" stroke-miterlimit="10" d="M15.023,28.277"/>
</svg>
